<svg id="Layer_1" data-name="Layer 1" xmlns="http://www.w3.org/2000/svg" viewBox="0 0 257 256"><defs><style>.cls-1{fill:#c11616;}.cls-2{opacity:0.8;}.cls-3{fill:#fff;}</style></defs><title>icon</title><rect class="cls-1" width="257" height="256"/><rect class="cls-2" x="0.5" y="98" width="256" height="60"/><path class="cls-3" d="M13,135.54h-2l10.59-17.67h1.9Z" transform="translate(0.5 0)"/><path class="cls-3" d="M29.5,128v-3.73l-2.82,2-1-1.73,3.3-1.61-3.3-1.63,1-1.71,2.82,2v-3.74h2v3.74l2.83-2,1,1.7L32,122.92l3.31,1.61-1,1.74-2.83-2V128Z" transform="translate(0.5 0)"/><path class="cls-3" d="M48.67,129V135H46.5V118.37h4.15a9,9,0,0,1,3.73.57,4.06,4.06,0,0,1,1.79,1.68,5,5,0,0,1,.62,2.47,5.67,5.67,0,0,1-.84,3,5.56,5.56,0,0,1-2.34,2.13,9.22,9.22,0,0,1-4.07.75Zm0-1.67h.93a6.58,6.58,0,0,0,3-.52,3.6,3.6,0,0,0,1.5-1.5,4.41,4.41,0,0,0,.53-2.12,2.9,2.9,0,0,0-.94-2.28Q52.74,120,50,120h-1.3Z" transform="translate(0.5 0)"/><path class="cls-3" d="M60.49,135V123h2v2.62a6.72,6.72,0,0,1,2.14-2.22,5.07,5.07,0,0,1,2.69-.74,7.37,7.37,0,0,1,2.17.33v4.33H67.57v-2.74a5.06,5.06,0,0,0-.79-.09,3.44,3.44,0,0,0-2.19.88,9.65,9.65,0,0,0-2.09,2.64v7Z" transform="translate(0.5 0)"/><path class="cls-3" d="M76,135V124.7H72.71V123H78v10.33h3.34V135Zm-.32-16.33a1.16,1.16,0,0,1,.46-1,1.31,1.31,0,0,1,1.74,0,1.16,1.16,0,0,1,.46,1,1.15,1.15,0,0,1-.46,1,1.31,1.31,0,0,1-1.74,0A1.15,1.15,0,0,1,75.71,118.7Z" transform="translate(0.5 0)"/><path class="cls-3" d="M89.79,135l-5.21-12h2.19l4.12,9.51L95.07,123h2l-5.25,12Z" transform="translate(0.5 0)"/><path class="cls-3" d="M107,132.35a6.44,6.44,0,0,1-2.2,2.26,4.7,4.7,0,0,1-2.36.76,3.6,3.6,0,0,1-2.7-1.3,5.65,5.65,0,0,1-1.2-3.94,8.42,8.42,0,0,1,.8-3.72,6.7,6.7,0,0,1,2.13-2.59,5.55,5.55,0,0,1,3.3-1q.57,0,1.72.12l.51.05h2v8.47a11.16,11.16,0,0,0,.46,3.53h-2.08A18.09,18.09,0,0,1,107,132.35Zm0-2.39v-5.15a7.82,7.82,0,0,0-2-.28,3.9,3.9,0,0,0-3.08,1.43,5.76,5.76,0,0,0-1.23,3.89,4.5,4.5,0,0,0,.67,2.69,1.91,1.91,0,0,0,1.53.91,3.36,3.36,0,0,0,2.07-.95A9,9,0,0,0,107,130Z" transform="translate(0.5 0)"/><path class="cls-3" d="M122.31,134.55a11.16,11.16,0,0,1-2,.7,7,7,0,0,1-1.22.11,5.39,5.39,0,0,1-2.3-.48,3.38,3.38,0,0,1-1.57-1.43,6.16,6.16,0,0,1-.53-2.92V125.7h-3V124h3V119.2h2V124H122v1.67h-5.34v4.8a4.38,4.38,0,0,0,.34,2,2.11,2.11,0,0,0,.92.88,3.07,3.07,0,0,0,1.36.28,6.17,6.17,0,0,0,3.05-.91Z" transform="translate(0.5 0)"/><path class="cls-3" d="M135.46,134.24a10.64,10.64,0,0,1-4.53,1.13,5.33,5.33,0,0,1-2.9-.8,5.74,5.74,0,0,1-2-2.3,6.92,6.92,0,0,1-.77-3.2,7.17,7.17,0,0,1,.73-3.16,5.64,5.64,0,0,1,2-2.36,5.29,5.29,0,0,1,2.92-.84,4.28,4.28,0,0,1,3.43,1.52,7.14,7.14,0,0,1,1.29,4.7v.43h-8.27a5,5,0,0,0,.52,2.28,3.71,3.71,0,0,0,1.37,1.55,3.64,3.64,0,0,0,1.93.52,9,9,0,0,0,4.28-1.29Zm-8-6.38h6v-.29a3.55,3.55,0,0,0-.72-2.33,2.37,2.37,0,0,0-1.92-.87,2.87,2.87,0,0,0-2.1.88A5,5,0,0,0,127.48,127.86Z" transform="translate(0.5 0)"/><path class="cls-3" d="M148.18,135h-1.75V118.37h2.18l3.85,11,3.86-11h2.12V135h-2V124.41l.05-1.46h-.06l-.47,1.46-2.58,7.29h-2.17l-2.61-7.29-.42-1.46h-.06l.05,1.46Z" transform="translate(0.5 0)"/><path class="cls-3" d="M170.67,134.24a10.64,10.64,0,0,1-4.53,1.13,5.33,5.33,0,0,1-2.9-.8,5.74,5.74,0,0,1-2-2.3,6.92,6.92,0,0,1-.77-3.2,7.17,7.17,0,0,1,.73-3.16,5.64,5.64,0,0,1,2-2.36,5.29,5.29,0,0,1,2.92-.84,4.28,4.28,0,0,1,3.43,1.52,7.14,7.14,0,0,1,1.29,4.7v.43h-8.27a5,5,0,0,0,.52,2.28,3.71,3.71,0,0,0,1.37,1.55,3.64,3.64,0,0,0,1.93.52,9,9,0,0,0,4.28-1.29Zm-8-6.38h6v-.29a3.55,3.55,0,0,0-.72-2.33,2.37,2.37,0,0,0-1.92-.87,2.87,2.87,0,0,0-2.1.88A5,5,0,0,0,162.69,127.86Z" transform="translate(0.5 0)"/><path class="cls-3" d="M181.92,132.34a6.47,6.47,0,0,1-2.2,2.27,4.7,4.7,0,0,1-2.36.76,3.61,3.61,0,0,1-2.71-1.3,5.64,5.64,0,0,1-1.2-3.94,8.42,8.42,0,0,1,.8-3.72,6.69,6.69,0,0,1,2.13-2.59,5.54,5.54,0,0,1,3.3-1q.57,0,1.72.12l.52.05V117.7h2V135h-2Zm0-2.38v-5.15a7.82,7.82,0,0,0-2-.28,3.9,3.9,0,0,0-3.08,1.43,5.76,5.76,0,0,0-1.23,3.89,4.5,4.5,0,0,0,.67,2.69,1.91,1.91,0,0,0,1.53.91,3.36,3.36,0,0,0,2.07-.95A9,9,0,0,0,181.92,130Z" transform="translate(0.5 0)"/><path class="cls-3" d="M190.46,135V124.7h-3.33V123h5.33v10.33h3.34V135Zm-.32-16.33a1.16,1.16,0,0,1,.46-1,1.31,1.31,0,0,1,1.74,0,1.16,1.16,0,0,1,.46,1,1.15,1.15,0,0,1-.46,1,1.31,1.31,0,0,1-1.74,0A1.15,1.15,0,0,1,190.13,118.7Z" transform="translate(0.5 0)"/><path class="cls-3" d="M208.18,132.35a6.44,6.44,0,0,1-2.2,2.26,4.7,4.7,0,0,1-2.36.76,3.6,3.6,0,0,1-2.7-1.3,5.65,5.65,0,0,1-1.2-3.94,8.42,8.42,0,0,1,.8-3.72,6.7,6.7,0,0,1,2.13-2.59,5.55,5.55,0,0,1,3.3-1q.57,0,1.72.12l.51.05h2v8.47a11.16,11.16,0,0,0,.46,3.53h-2.08A18.09,18.09,0,0,1,208.18,132.35Zm0-2.39v-5.15a7.82,7.82,0,0,0-2-.28,3.9,3.9,0,0,0-3.08,1.43,5.76,5.76,0,0,0-1.23,3.89,4.5,4.5,0,0,0,.67,2.69,1.91,1.91,0,0,0,1.53.91,3.36,3.36,0,0,0,2.07-.95A9,9,0,0,0,208.19,130Z" transform="translate(0.5 0)"/><path class="cls-3" d="M224.45,128v-3.73l-2.82,2-1-1.73,3.3-1.61-3.3-1.63,1-1.71,2.82,2v-3.74h2v3.74l2.83-2,1,1.7L227,122.92l3.31,1.61-1,1.74-2.83-2V128Z" transform="translate(0.5 0)"/><path class="cls-3" d="M234.4,135.54h-2L243,117.87h1.9Z" transform="translate(0.5 0)"/></svg>